<?xml version="1.0" encoding="UTF-8" standalone="no"?>
<svg
   viewBox="0 0 32 32"
   version="1.1"
   id="svg1"
   xmlns="http://www.w3.org/2000/svg"
   xmlns:svg="http://www.w3.org/2000/svg">
  <defs
     id="defs1" />
  <path
     fill="#375273"
     d="m 14.2,6.2 v 19.6 c 0,0.2 -0.1,0.5 -0.3,0.6 -0.2,0.2 -0.4,0.3 -0.6,0.3 H 6.2 C 6,26.7 5.7,26.6 5.6,26.4 5.4,26.2 5.3,26 5.3,25.8 V 6.2 C 5.3,6 5.4,5.7 5.6,5.6 5.8,5.4 6,5.3 6.2,5.3 h 7.1 c 0.2,0 0.5,0.1 0.6,0.3 0.2,0.1 0.3,0.3 0.3,0.6 z m 12.5,0 v 19.6 c 0,0.2 -0.1,0.5 -0.3,0.6 -0.2,0.2 -0.4,0.3 -0.6,0.3 h -7.1 c -0.2,0 -0.5,-0.1 -0.6,-0.3 C 17.9,26.2 17.8,26 17.8,25.8 V 6.2 c 0,-0.2 0.1,-0.5 0.3,-0.6 0.2,-0.2 0.4,-0.3 0.6,-0.3 h 7.1 c 0.2,0 0.5,0.1 0.6,0.3 0.2,0.1 0.3,0.3 0.3,0.6 z"
     id="path1"
     style="display:none" />
  <rect
     style="display:inline;fill:#375273;stroke-width:1.66371;fill-opacity:1"
     id="rect4"
     width="21.385557"
     height="21.394335"
     x="5.3184099"
     y="5.3003531"
     rx="1.02" />
</svg>
