<?xml version="1.0" encoding="UTF-8" standalone="no"?>
<svg
   viewBox="0 0 21.5 25.5"
   width="21.5"
   height="25.5"
   version="1.1"
   id="svg1"
   sodipodi:docname="queued.svg"
   inkscape:version="1.4.2 (f4327f4, 2025-05-13)"
   xmlns:inkscape="http://www.inkscape.org/namespaces/inkscape"
   xmlns:sodipodi="http://sodipodi.sourceforge.net/DTD/sodipodi-0.dtd"
   xmlns="http://www.w3.org/2000/svg"
   xmlns:svg="http://www.w3.org/2000/svg">
  <defs
     id="defs1" />
  <sodipodi:namedview
     id="namedview1"
     pagecolor="#ffffff"
     bordercolor="#000000"
     borderopacity="0.25"
     inkscape:showpageshadow="2"
     inkscape:pageopacity="0.0"
     inkscape:pagecheckerboard="0"
     inkscape:deskcolor="#d1d1d1"
     inkscape:zoom="31.960784"
     inkscape:cx="10.747546"
     inkscape:cy="12.75"
     inkscape:window-width="1920"
     inkscape:window-height="1017"
     inkscape:window-x="-8"
     inkscape:window-y="425"
     inkscape:window-maximized="1"
     inkscape:current-layer="svg1" />
  <path
     d="M14.5 6.2c-1.2-.7-2.5-1-3.8-1-1.4 0-2.7.3-3.8 1-1.2.7-2.1 1.6-2.8 2.8-.7 1.2-1 2.5-1 3.8 0 1.4.3 2.7 1 3.8.7 1.2 1.6 2.1 2.8 2.8 1.2.7 2.5 1 3.8 1 1.4 0 2.7-.3 3.8-1 1.2-.7 2.1-1.6 2.8-2.8.7-1.2 1-2.5 1-3.8 0-1.4-.3-2.7-1-3.8-.7-1.2-1.6-2.1-2.8-2.8zm-2 8c0 .1 0 .2-.1.3-.1.1-.2.1-.3.1H7.6c-.1 0-.2 0-.3-.1-.1-.1-.1-.2-.1-.3v-.9c0-.1 0-.2.1-.3.1-.1.2-.1.3-.1h3.1v-5c0-.1 0-.2.1-.3.1-.1.2-.1.3-.1h.9c.1 0 .2 0 .3.1.1.1.1.2.1.3v6.3zm7.6 4c-1 1.7-2.3 3-3.9 3.9-1.7 1-3.5 1.4-5.4 1.4-2 0-3.8-.5-5.4-1.4-1.7-1-3-2.3-3.9-3.9-1-1.7-1.5-3.5-1.5-5.4 0-2 .5-3.8 1.5-5.4 1-1.7 2.3-3 3.9-3.9C7.1 2.5 8.9 2 10.8 2c2 0 3.8.5 5.4 1.5 1.6 1 3 2.3 3.9 3.9.9 1.6 1.4 3.5 1.4 5.4 0 2-.5 3.8-1.4 5.4z"
     fill="teal"
     id="path1"
     style="fill:#cd853f;fill-opacity:1" />
</svg>
